<svg xmlns="http://www.w3.org/2000/svg" viewBox="0 0 1254 1254" role="img" aria-label="LifeOS logo"><path fill="currentColor" stroke="currentColor" stroke-width="0" d="M 533.5 267 L 556.5 268 L 573.5 273 Q 591.4 281.1 603 295.5 L 615 315.5 L 620 338.5 L 620 559.5 L 615.5 566 L 613.5 567 L 575.5 567 L 559 549.5 L 557 545.5 L 557 481.5 L 534 455.5 L 534 383 Q 527.1 381.1 523 375.5 Q 517.9 369.6 518 358.5 Q 520.4 347.4 528.5 342 L 537.5 338 L 546.5 338 Q 556.8 340.8 562 348.5 Q 566.8 354.7 565 367.5 L 558.5 378 L 549 383 L 549 450.5 Q 562.7 462.8 573 478.5 L 573 541.5 L 579.5 548 L 600 547.5 L 599 546.5 L 599 536.5 Q 601.8 534.7 600 528.5 Q 597.2 526.8 599 520.5 Q 601.8 518.8 600 512.5 Q 597.2 510.8 599 504.5 L 600 502.5 L 599 501.5 L 599 488.5 Q 601.8 486.7 600 480.5 L 599 479.5 L 599 464.5 L 600 463.5 L 600 454.5 L 599 453.5 L 599 440.5 L 600 439.5 L 600 416.5 Q 597.2 414.7 599 408.5 L 600 407.5 L 600 386.5 L 599 385.5 L 599 376.5 Q 601.8 374.8 600 368.5 L 599 367.5 L 599 332.5 L 598 328.5 L 593 316.5 L 584 304 L 573.5 296 L 563.5 291 L 553.5 288 L 539.5 287 L 538.5 288 L 526.5 289 L 512.5 294 Q 499.4 300.9 491 312.5 L 483 327.5 L 481 334.5 L 481 339.5 L 476.5 347 L 472.5 349 L 458.5 349 L 440.5 354 Q 423.3 361.3 412 374.5 L 402 388.5 L 395 405.5 L 393 416.5 L 393 435.5 Q 395.3 436.8 394 441.5 L 389.5 448 Q 366.8 453.8 354 469.5 Q 344.9 480.4 340 495.5 L 337 509.5 L 337 531.5 Q 344.8 571.7 372.5 592 L 385.5 601 L 463.5 601 L 468 603 L 472 609.5 L 526.5 673 L 608.5 673 Q 609.7 675.2 614.5 674 L 617 676.5 L 618 682.5 L 614.5 687 L 612.5 688 L 526.5 688 L 522 692.5 L 474 746.5 L 462 772.5 L 458.5 776 L 455.5 777 L 427 777 Q 425.1 785.7 417.5 790 Q 412 795 399.5 793 Q 389.6 790.9 385 783.5 Q 380.8 778.2 381 768.5 L 382 763.5 L 388 753 L 399.5 747 L 409.5 747 Q 419.5 749 424 756.5 L 427.5 762 L 449.5 762 L 450 760.5 L 461 738.5 L 505 688.5 L 392 688 L 392 690.5 L 385.5 699 L 375.5 704 L 365.5 704 Q 355.3 701.3 350 693.5 Q 345.5 688 347 676.5 Q 349.8 666.3 357.5 661 Q 363.6 656.6 375.5 658 Q 384 660.5 389 666.5 L 392 673 L 394.5 674 L 407.5 674 L 408.5 673 L 505 672.5 L 458.5 619 L 376.5 619 Q 356.5 607.5 342 590.5 L 333 578.5 L 331 573 L 329.5 573 L 320 582.5 Q 307.9 597.4 302 618.5 L 298 639.5 L 298 659.5 L 299 660.5 L 299 668.5 L 301 678.5 L 306 693.5 L 313 707.5 L 326 725 Q 328.7 723.9 328 726.5 L 342 738.5 L 343 746.5 L 340 755.5 L 339 777.5 L 344 799.5 Q 350.8 816.2 362.5 828 Q 373.2 838.8 388.5 845 L 405.5 849 L 421.5 849 L 428.5 847 L 435.5 847 L 442 851.5 L 447 867.5 L 451 875.5 Q 458.1 887.4 468.5 896 Q 481.4 906.6 499.5 912 L 516.5 915 L 531.5 915 L 546.5 912 L 562.5 905 Q 575.9 897.4 585 885.5 L 594 870.5 L 599 854.5 L 599 744.5 Q 601.8 742.8 600 736.5 L 599 733.5 L 600 731 L 556.5 731 L 551 736.5 L 534 756.5 L 534 813.5 L 543 820.5 L 548 830.5 L 548 840.5 L 541.5 852 Q 535.8 858.8 523.5 859 L 511.5 855 L 505 848.5 L 501 839.5 L 501 831.5 L 506 820 L 508 820 Q 506.9 817.3 509.5 818 L 520 811.5 L 519 808.5 L 519 752.5 L 522 746.5 L 550.5 714 L 558.5 712 L 567.5 712 L 569.5 712 L 611.5 712 L 619 717.5 L 620 720.5 L 620 848.5 L 619 849.5 L 619 857.5 Q 616.4 860.4 617 866.5 L 610 884.5 L 594 907 L 591 908.5 Q 591.8 910.8 589.5 910 Q 574.4 925.4 550.5 932 L 533.5 935 L 512.5 935 L 488.5 930 L 470.5 922 Q 454.4 913.1 443 899.5 Q 431.5 886.8 427 868 L 420.5 869 L 405.5 869 L 388.5 866 L 365.5 856 Q 350.6 846.9 340 833.5 Q 328.3 818.2 322 797.5 L 319 783.5 L 319 758.5 L 321 748.5 Q 298.3 729.2 286 699.5 L 282 687.5 L 278 668.5 L 277 642.5 L 278 641.5 L 278 632.5 L 281 616.5 L 291 589.5 Q 300.8 570.8 315.5 557 L 321 552.5 L 318 543.5 L 317 531.5 L 316 530.5 L 316 511.5 L 317 510.5 L 318 497.5 L 323 481.5 L 337 457.5 L 347.5 447 Q 358.3 437.3 373 431.5 L 373 410.5 L 381 384.5 Q 390.5 364.5 406.5 351 Q 418.9 340.4 435.5 334 L 449.5 330 L 462 329 L 462 325.5 L 468 310.5 L 483 290 L 497.5 279 L 509.5 273 L 517.5 270 L 533.5 267 Z M 540 351 L 536 353 L 532 358 L 533 367 L 539 371 L 548 370 L 552 364 Q 553 357 550 355 Q 547 350 540 351 Z M 368 671 L 365 672 L 360 679 Q 359 685 362 688 L 368 691 L 374 691 L 379 688 L 381 684 L 380 677 Q 378 670 368 671 Z M 404 760 L 396 764 L 395 767 L 396 776 L 401 780 L 405 781 L 411 779 L 415 774 L 414 766 Q 412 760 404 760 Z M 523 825 L 519 827 L 514 835 L 516 842 L 524 846 L 531 844 L 535 838 L 534 831 L 528 825 L 523 825 Z " /><path fill="currentColor" stroke="currentColor" stroke-width="0" d="M 707.5 267 L 730.5 268 L 746.5 273 Q 765.6 281.4 778 296.5 L 789 313.5 L 793 327.5 L 794.5 329 L 813.5 332 L 834.5 341 Q 849.2 349.8 860 362.5 Q 870.8 374.7 877 391.5 L 882 410.5 L 882 422.5 L 883 423.5 Q 880.3 425.3 882 431.5 Q 902.4 440.1 916 455.5 Q 927.6 468.9 934 487.5 L 938 504.5 L 939 525.5 L 938 526.5 L 937 541.5 L 934 552.5 Q 956 570.5 968 598.5 L 973 613.5 L 977 634.5 L 977 665.5 L 972 689.5 L 967 703.5 Q 955.1 730.1 934 747.5 L 934 752.5 L 936 761.5 L 936 779.5 L 932 800.5 L 923 821.5 Q 913.8 837.8 899.5 849 Q 885.7 860.2 866.5 866 L 849.5 869 L 832.5 869 L 828 868 Q 820.4 897 798.5 913 Q 783.6 924.6 763.5 931 L 741.5 935 L 721.5 935 L 704.5 932 L 682.5 923 Q 668.2 914.8 658 902.5 Q 642.5 885.5 637 858.5 L 637 849.5 L 636 848.5 L 636 722.5 Q 636.9 715.9 641.5 713 Q 647 714.5 648.5 712 L 670.5 712 L 672.5 713 L 673.5 712 L 698.5 712 L 701.5 713 Q 706.6 712.4 708 715.5 L 733 745.5 L 737 752.5 L 737 808.5 L 737 810.5 Q 735.9 813.8 738.5 813 L 748 818 L 753 825.5 Q 756 830.5 755 839.5 Q 752.3 849.8 744.5 855 Q 738.8 858.8 729.5 859 L 721.5 857 L 713 850.5 L 708 841.5 L 708 829.5 Q 710.5 821.5 716.5 817 L 721 815 L 722 812.5 L 722 760.5 L 722 758.5 L 720 753.5 L 700.5 731 L 657 731 L 657 855.5 Q 663 882.5 681.5 897 Q 694 908 712.5 913 L 723.5 914 L 724.5 915 L 738.5 915 L 755.5 912 L 776.5 903 Q 789 895.5 798 884.5 L 807 869.5 L 811 855.5 L 815.5 849 Q 818.8 845.8 826.5 847 Q 834.8 850.7 848.5 849 L 859.5 847 L 874.5 841 Q 888.4 833.4 898 821.5 Q 907 810.5 912 795.5 L 915 781.5 L 915 759.5 L 912 747.5 L 912 740.5 L 918.5 733 L 933 719.5 Q 943.8 706.8 950 689.5 L 955 671.5 L 957 649.5 L 957 647.5 L 954 623.5 L 947 602.5 Q 938.8 585.2 925.5 573 Q 923.3 572.3 924 574.5 Q 912.6 594.1 895.5 608 L 878.5 619 L 798.5 619 L 796 621.5 L 752 672.5 L 754.5 674 L 775.5 674 L 776.5 673 L 855.5 673 L 857.5 674 L 864 671.5 L 864 669.5 L 869.5 663 L 879.5 658 L 889.5 658 Q 899.4 660.1 904 667.5 L 908 676.5 L 908 686.5 Q 905.2 695.2 898.5 700 Q 892.9 705.4 880.5 704 Q 871.9 702.1 867 696.5 L 863 688 L 751 688.5 L 794 738.5 L 806.5 762 L 828.5 762 L 830 760.5 L 831 757.5 L 838.5 750 L 846.5 747 L 855.5 747 Q 865.1 749.4 870 756.5 L 874 765.5 L 874 775.5 Q 871.8 783.3 866.5 788 L 857.5 793 L 844.5 793 Q 836.5 790.5 832 784.5 L 829 777 L 799.5 777 L 794 772.5 L 780 744.5 L 730.5 688 L 642.5 688 L 639 684.5 L 638 678.5 L 640.5 675 Q 644.3 672.3 652.5 674 L 653.5 673 L 730.5 673 L 735 668.5 L 790.5 602 L 792.5 601 L 870.5 601 L 892 584 L 907 563.5 L 913 550.5 L 918 528.5 L 918 511.5 L 917 510.5 L 916 499.5 L 911 485.5 Q 904.2 471.8 893.5 462 L 875.5 451 L 866.5 449 L 862 444.5 L 861 435.5 L 862 434.5 L 862 415.5 Q 856.3 383.7 835.5 367 Q 824.6 357.4 809.5 352 L 795.5 349 L 783.5 349 L 776 343.5 Q 772.1 313.9 752.5 300 Q 743.7 292.3 730.5 289 L 719.5 287 L 711.5 287 L 710.5 288 L 699.5 289 L 688.5 293 Q 676.2 299.2 668 309.5 Q 659.8 319.3 657 334.5 L 657 548 L 678.5 548 L 684 543.5 L 686 540.5 L 686 476.5 L 710 449.5 L 710 383 L 705.5 382 L 698 375.5 Q 693.2 369.8 693 359.5 Q 695 347.5 703.5 342 Q 709.1 336.6 721.5 338 L 729.5 341 L 735 345 L 739 351.5 L 741 358.5 L 741 363.5 Q 739.3 373.8 732.5 379 L 725 383.5 L 725 453.5 L 723 457.5 L 701 482.5 L 701 546.5 L 697.5 552 Q 695.3 551.3 696 553.5 L 684.5 566 L 682.5 567 L 642.5 567 L 638 563.5 L 636 559.5 L 636 338.5 L 639 321.5 L 646 305.5 Q 653.1 293.6 663.5 285 L 683.5 273 L 695.5 269 L 706.5 268 L 707.5 267 Z M 715 351 L 709 354 L 707 359 Q 706 365 709 368 L 714 371 L 723 370 L 727 365 L 726 356 L 720 351 L 715 351 Z M 882 671 L 880 672 L 874 680 L 875 686 L 882 691 L 891 690 L 895 685 Q 896 677 893 675 Q 891 669 882 671 Z M 849 760 L 847 761 L 841 768 L 842 776 Q 845 780 851 781 L 856 780 L 861 774 L 860 764 L 856 761 L 849 760 Z M 730 825 L 727 826 L 721 834 L 722 841 L 730 846 L 738 844 L 742 837 L 740 830 Q 738 824 730 825 Z " /><path fill="currentColor" stroke="currentColor" stroke-width="0" d="M 789.5 405 L 799.5 407 L 807 412 L 813 422.5 L 814 430.5 Q 812 442.5 803.5 448 L 795 451 L 795 476.5 L 793 480.5 L 776 497.5 L 776 499 L 773 500.5 L 762 514 L 755 519.5 L 753.5 522 Q 751.3 521.3 752 523.5 L 728 547.5 L 728 583.5 L 711 604 L 708.5 605 L 642.5 605 L 639 602.5 L 638 595.5 L 642.5 591 L 701.5 591 L 709 583.5 L 712 579.5 L 712 544.5 L 713 541.5 L 753 500.5 L 753 499 L 757 496.5 L 780 472.5 L 780 450.5 L 770 441.5 Q 765.8 436.2 766 426.5 Q 767.7 415.2 775.5 410 L 780.5 407 L 789.5 405 Z M 790 418 L 785 420 L 780 426 Q 779 433 782 436 L 789 439 Q 794 440 797 437 L 801 430 L 800 425 Q 798 418 790 418 Z " /><path fill="currentColor" stroke="currentColor" stroke-width="0" d="M 462.5 406 Q 472 404.5 477.5 407 L 487 414.5 Q 492.7 420.3 492 432.5 L 490 438.5 L 485 446 L 479 450.5 L 479 471.5 L 480 473.5 L 545 541.5 L 546 543.5 L 546 579.5 L 554.5 589 L 557.5 591 L 613.5 591 L 617 593.5 L 618 600.5 L 615.5 604 L 613.5 605 L 568.5 605 L 567.5 606 L 552.5 606 L 542 597.5 L 531 584.5 L 531 548.5 L 466 480.5 L 464 476.5 L 464 451 Q 453 449.8 448 441.5 L 445 435.5 L 444 428.5 L 447 417.5 L 452.5 411 L 462.5 406 Z M 465 419 L 463 420 L 458 426 L 459 435 L 467 439 L 475 437 Q 480 434 478 425 Q 476 417 465 419 Z " /><path fill="currentColor" stroke="currentColor" stroke-width="0" d="M 398.5 510 L 411.5 510 Q 419.5 512.5 424 518.5 L 428 528 L 465.5 528 L 473 534.5 L 551.5 630 L 612.5 630 L 618 634.5 Q 619.8 641.3 616.5 643 L 612.5 645 L 545.5 645 L 538 638.5 L 496 586 Q 493.3 587.1 494 584.5 L 458.5 542 L 428.5 542 L 426 543 L 420.5 551 Q 414.2 557.2 400.5 556 Q 390.3 553.3 385 545.5 Q 380.2 539.3 382 526.5 Q 384.5 518.5 390.5 514 L 398.5 510 Z M 402 523 L 400 524 L 395 530 L 396 539 L 403 543 Q 409 544 412 541 L 416 534 L 415 529 L 410 523 L 402 523 Z " /><path fill="currentColor" stroke="currentColor" stroke-width="0" d="M 845.5 510 L 857.5 510 Q 864.9 512.1 869 517.5 Q 876.3 523.7 874 539.5 L 868 550 L 859.5 555 L 846.5 556 Q 837.3 553.2 832 546.5 L 829.5 542 L 827.5 542 L 798.5 542 L 795 545.5 Q 756.5 596.5 714.5 644 L 712.5 645 L 643.5 645 L 639 641.5 L 638 635.5 L 641.5 631 L 643.5 630 L 706.5 630 L 710 626.5 L 789.5 529 L 791.5 528 L 829 528 Q 830.4 518.6 837.5 514 L 845.5 510 Z M 849 523 L 844 525 L 841 531 L 842 538 L 849 543 Q 855 544 858 541 Q 863 538 861 529 Q 859 522 849 523 Z " /></svg>
